<svg xmlns="http://www.w3.org/2000/svg" width="32.001" height="32" viewBox="0 0 32.001 32">
    <path data-name="패스 10275" d="M31.695 13.994a1.812 1.812 0 0 1 0 2.011l-1.637 2.228a4.466 4.466 0 0 0-.745 2.244l-.013 2.745a1.844 1.844 0 0 1-1.207 1.626l-2.665.857a4.63 4.63 0 0 0-1.948 1.388l-1.654 2.217a1.9 1.9 0 0 1-1.951.621l-2.675-.842a4.7 4.7 0 0 0-2.409 0l-2.671.841a1.9 1.9 0 0 1-1.952-.621l-1.65-2.216a4.614 4.614 0 0 0-1.948-1.388l-2.663-.857A1.842 1.842 0 0 1 2.7 23.222l-.013-2.746a4.476 4.476 0 0 0-.744-2.244L.305 16.005a1.807 1.807 0 0 1 0-2.011l1.637-2.228a4.476 4.476 0 0 0 .744-2.244L2.7 6.777a1.842 1.842 0 0 1 1.206-1.625l2.663-.857a4.614 4.614 0 0 0 1.949-1.388L10.174.69a1.9 1.9 0 0 1 1.951-.621L14.8.911a4.7 4.7 0 0 0 2.409 0l2.666-.842a1.9 1.9 0 0 1 1.951.621l1.655 2.217a4.626 4.626 0 0 0 1.95 1.388l2.663.857A1.845 1.845 0 0 1 29.3 6.779l.011 2.744a4.478 4.478 0 0 0 .745 2.244z" transform="translate(.001 1)" style="fill:#028375"/>
    <text transform="translate(16 19)" style="fill:#f5f7f7;font-size:9px;font-family:PTSerif-BoldItalic,PT Serif;font-weight:700;font-style:italic;letter-spacing:-.02em"><tspan x="-8.811" y="0">New</tspan></text>
</svg>
