<svg xmlns="http://www.w3.org/2000/svg" width="24" height="24">
    <path data-name="패스 10235" d="M32.18 40.55a.753.753 0 0 1-.605-.3l-5.942-8.16a6.843 6.843 0 0 1-1.453-4.212c0-4.043 3.589-7.332 8-7.332s8 3.289 8 7.332a6.843 6.843 0 0 1-1.465 4.227l-5.929 8.143a.748.748 0 0 1-.606.302z" transform="translate(-20.18 -18.551)" style="stroke-linecap:round;fill:none;stroke:#2d2a26"/>
    <path data-name="패스 10236" d="M44.009 42.818a2.439 2.439 0 1 1 2.439-2.439 2.443 2.443 0 0 1-2.439 2.439z" transform="translate(-32.01 -31.01)" style="fill:none;stroke:#2d2a26"/>
</svg>
