<svg viewBox="0 0 91 91" xml:space="preserve" xmlns="http://www.w3.org/2000/svg"><path d="M64.319 59.169a1.266 1.266 0 0 1-.125-1.383 1.342 1.342 0 0 1 1.22-.729h2.655c.542 0 1.006-.287 1.237-.766a1.268 1.268 0 0 0-.189-1.408L56.623 40.351a1.27 1.27 0 0 1-.189-1.412c.23-.475.693-.762 1.235-.762h.706c.531 0 .986-.273 1.222-.732a1.267 1.267 0 0 0-.131-1.389L47.371 20.462a1.342 1.342 0 0 0-1.092-.527 1.34 1.34 0 0 0-1.09.527L33.093 36.056c-.318.41-.369.928-.131 1.389.238.459.692.732 1.221.732h.707c.542 0 1.006.287 1.235.762a1.267 1.267 0 0 1-.188 1.412L23.441 54.884a1.266 1.266 0 0 0-.187 1.408c.229.479.694.766 1.235.766h2.656c.528 0 .981.27 1.219.729s.19.973-.124 1.383L16.633 74.337c-.314.41-.361.924-.124 1.383a1.34 1.34 0 0 0 1.22.729h25.753l-1.046 11.229h7.687l-1.045-11.229h25.753c.528 0 .981-.27 1.218-.729a1.26 1.26 0 0 0-.123-1.383L64.319 59.169zM35.693 46.981c2.754 0 4.986 2.166 4.986 4.84s-2.232 4.838-4.986 4.838c-2.755 0-4.988-2.164-4.988-4.838s2.233-4.84 4.988-4.84zm1.24 25.403c-2.754 0-4.987-2.164-4.987-4.838 0-2.672 2.233-4.838 4.987-4.838s4.988 2.166 4.988 4.838c0 2.674-2.233 4.838-4.988 4.838zm9.356-28.549c-3.442 0-6.234-2.705-6.234-6.049 0-3.34 2.792-6.049 6.234-6.049s6.234 2.709 6.234 6.049c0 3.344-2.792 6.049-6.234 6.049zm3.234 11.012c0-2.676 2.234-4.84 4.988-4.84s4.988 2.164 4.988 4.84c0 2.67-2.234 4.838-4.988 4.838s-4.988-2.168-4.988-4.838zm10.972 18.871c-2.753 0-4.985-2.164-4.985-4.838 0-2.676 2.232-4.84 4.985-4.84 2.755 0 4.987 2.164 4.987 4.84 0 2.674-2.232 4.838-4.987 4.838z" fill="#087558" class="fill-000000"></path><path d="M54.039 11.817c.348-.295.471-.734.328-1.164a1.1 1.1 0 0 0-.971-.752l-3.678-.338a1.103 1.103 0 0 1-.934-.656l-1.467-3.291a1.11 1.11 0 0 0-1.039-.662c-.461 0-.856.25-1.039.662l-1.467 3.291c-.17.377-.51.619-.933.656l-3.677.338c-.459.041-.83.326-.972.752-.142.43-.017.869.329 1.164l2.771 2.371c.32.273.45.662.358 1.066l-.807 3.498c-.103.438.065.865.438 1.127.374.264.845.283 1.242.059l3.182-1.826a1.124 1.124 0 0 1 1.15 0l3.18 1.826c.398.225.869.205 1.242-.059.373-.262.541-.689.439-1.127l-.807-3.498a1.053 1.053 0 0 1 .356-1.066l2.776-2.371z" fill="#087558" class="fill-000000"></path></svg>